<svg width="25" height="25" fill="none" xmlns="http://www.w3.org/2000/svg"><g clip-path="url(#a)"><path d="M12.5 25C19.404 25 25 19.404 25 12.5S19.404 0 12.5 0 0 5.596 0 12.5 5.596 25 12.5 25Zm-2.079-9.958 5.796-5.23c.255-.226-.055-.336-.393-.131L8.67 14.194l-3.09-.965c-.667-.204-.672-.662.15-.992l12.041-4.643c.55-.25 1.08.132.87.974l-2.05 9.663c-.143.686-.558.85-1.133.534l-3.123-2.308-1.502 1.46c-.174.17-.312.312-.625.312l.213-3.187Z" fill="#fff"/></g><defs><clipPath id="a"><path fill="#fff" d="M0 0h25v25H0z"/></clipPath></defs></svg>