<svg width="25" height="25" fill="none" xmlns="http://www.w3.org/2000/svg"><g clip-path="url(#a)"><mask id="b" style="mask-type:luminance" maskUnits="userSpaceOnUse" x="0" y="0" width="25" height="25"><path d="M25 0H0v25h25V0Z" fill="#fff"/></mask><g mask="url(#b)"><path d="M11.987 25h1.041c5.651 0 8.477 0 10.232-1.755C25.015 21.49 25 18.665 25 13.028v-1.056c0-5.636 0-8.462-1.74-10.217C21.52 0 18.679 0 13.028 0h-1.041C6.335 0 3.51 0 1.755 1.755 0 3.51 0 6.334 0 11.972v1.056c0 5.637 0 8.462 1.755 10.217C3.51 25 6.335 25 11.987 25Z" fill="#fff"/><path d="M13.415 18.025c-5.637 0-9.058-3.91-9.19-10.41h2.854c.09 4.774 2.261 6.8 3.926 7.213V7.615h2.737v4.12c1.606-.179 3.286-2.053 3.852-4.12h2.691c-.43 2.543-2.26 4.417-3.554 5.19 1.294.625 3.376 2.261 4.18 5.22h-2.96c-.625-1.978-2.157-3.51-4.209-3.718v3.718h-.327Z" fill="#000"/></g></g><defs><clipPath id="a"><path fill="#fff" d="M0 0h25v25H0z"/></clipPath></defs></svg>