<svg width="36" height="36" fill="none" xmlns="http://www.w3.org/2000/svg"><path d="M17.896 3.087a2.251 2.251 0 0 1 3.182-.337l7.34 5.994a2.25 2.25 0 0 1 .562 2.8A6.75 6.75 0 0 0 27 11.25h-.675l.67-.765-3.865-3.157-3.188 3.924h-2.9l4.344-5.346-1.732-1.415-5.396 6.759h-2.88l6.518-8.163ZM23.625 22.5a1.125 1.125 0 1 0 0 2.25h2.25a1.125 1.125 0 1 0 0-2.25h-2.25ZM6.75 12.375a1.125 1.125 0 0 1 1.125-1.125H9.13L10.92 9H7.874A3.375 3.375 0 0 0 4.5 12.375v13.5a5.625 5.625 0 0 0 5.625 5.625H27a4.5 4.5 0 0 0 4.5-4.5v-9a4.5 4.5 0 0 0-4.5-4.5H7.875a1.125 1.125 0 0 1-1.125-1.125Zm0 13.5V15.559c.351.123.731.191 1.125.191H27A2.25 2.25 0 0 1 29.25 18v9A2.25 2.25 0 0 1 27 29.25H10.125a3.375 3.375 0 0 1-3.375-3.375Z" fill="#EECD51"/></svg>