<svg width="36" height="36" fill="none" xmlns="http://www.w3.org/2000/svg"><g clip-path="url(#a)" fill="#EECD51"><path d="M15.75 18a7.875 7.875 0 0 1 7.875 7.999 1.124 1.124 0 0 0 1.404 1.107 3.38 3.38 0 0 1 4.221 3.269 3.375 3.375 0 0 1-3.375 3.375H6.75a4.5 4.5 0 1 1 .225-8.995 1.125 1.125 0 0 0 1.147-.844A7.88 7.88 0 0 1 15.75 18Zm10.064 6.75a10.125 10.125 0 0 0-19.62-2.227A6.75 6.75 0 0 0 6.75 36h19.125a5.625 5.625 0 1 0 0-11.25h-.06Z"/><path d="M23.625 3.375a1.125 1.125 0 1 0-2.25 0v2.25a1.125 1.125 0 1 0 2.25 0v-2.25Zm8.422 4.419a1.126 1.126 0 0 0-.792-1.934 1.124 1.124 0 0 0-.799.343l-1.593 1.591a1.127 1.127 0 0 0 1.593 1.593l1.59-1.593Zm-17.503-1.59a1.125 1.125 0 0 0-1.59 1.59l1.59 1.593a1.127 1.127 0 0 0 1.593-1.593l-1.593-1.59Zm3.901 7.59a4.499 4.499 0 0 1 8.517 1.382 4.501 4.501 0 0 1-1.1 3.564c.447.633.837 1.31 1.16 2.02a6.749 6.749 0 1 0-10.89-7.256c.792.025 1.566.124 2.313.29Zm10.09 9.167a7.895 7.895 0 0 1 3.424 2.412 1.124 1.124 0 0 0 .088-1.67l-1.591-1.59a1.125 1.125 0 0 0-1.921.848Zm4.09-8.336a1.125 1.125 0 1 0 0 2.25h2.25a1.125 1.125 0 1 0 0-2.25h-2.25Z"/></g><defs><clipPath id="a"><path fill="#fff" d="M0 0h36v36H0z"/></clipPath></defs></svg>